/* XPM */
static char *_6552484f8b34f7bb648edd98d460c5fRjSRJnwyvTL7swVn[] = {
/* columns rows colors chars-per-pixel */
"62 64 230 2 ",
"   c None",
".  c #191B19",
"X  c #1A1B1A",
"o  c #191D19",
"O  c #1B1C19",
"+  c #1A1C1A",
"@  c #1A1D1A",
"#  c #1B1D1A",
"$  c #1B1C1B",
"%  c #1B1D1B",
"&  c #1A1E1A",
"*  c #1C1E1A",
"=  c #1C1F1A",
"-  c #1D1E1B",
";  c #1E1E1A",
":  c #1F1F1A",
">  c #1E1F1B",
",  c #1D1F1C",
"<  c #1E1F1C",
"1  c #20201A",
"2  c #20201B",
"3  c #21211B",
"4  c #22211B",
"5  c #26231B",
"6  c #26251B",
"7  c #20211C",
"8  c #24241E",
"9  c #2A271B",
"0  c #2E2A1B",
"q  c #2F2A1B",
"w  c #29281F",
"e  c #3B331B",
"r  c #39321C",
"t  c #3B331C",
"y  c #3B331D",
"u  c #3B341E",
"i  c #3D341C",
"p  c #3E351C",
"a  c #3E361E",
"s  c #2B2921",
"d  c #2B2A21",
"f  c #2F2C24",
"g  c #333024",
"h  c #363225",
"j  c #393321",
"k  c #3A3321",
"l  c #393322",
"z  c #3A3420",
"x  c #3B3421",
"c  c #3A3422",
"v  c #3B3524",
"b  c #3A3527",
"n  c #3A3627",
"m  c #3C3625",
"M  c #3E3725",
"N  c #3D3726",
"B  c #3C3728",
"V  c #3E3828",
"C  c #41371C",
"Z  c #43391C",
"A  c #43391D",
"S  c #42381E",
"D  c #44391D",
"F  c #453A1E",
"G  c #463B1E",
"H  c #493D1D",
"J  c #4E3F1D",
"K  c #413A28",
"L  c #443D2A",
"P  c #463F2B",
"I  c #463F2C",
"U  c #4D401D",
"Y  c #4E401D",
"T  c #4F411D",
"R  c #51431C",
"E  c #51431D",
"W  c #53441D",
"Q  c #54451D",
"!  c #5A491D",
"~  c #5B491D",
"^  c #5D4B1D",
"/  c #614E1D",
"(  c #634F1D",
")  c #634F1E",
"_  c #69531E",
"`  c #69541E",
"'  c #6B551E",
"]  c #6C551D",
"[  c #6D561E",
"{  c #6E571E",
"}  c #725A1E",
"|  c #745C1E",
" . c #775D1E",
".. c #7A601E",
"X. c #7B601E",
"o. c #7D621D",
"O. c #49412C",
"+. c #4B432D",
"@. c #4B432E",
"#. c #4C442E",
"$. c #4E462F",
"%. c #504730",
"&. c #514830",
"*. c #5A4F34",
"=. c #5B5035",
"-. c #625537",
";. c #645738",
":. c #655839",
">. c #695B3A",
",. c #685C3A",
"<. c #6A5C3B",
"1. c #6D5E3C",
"2. c #74643F",
"3. c #7B6942",
"4. c #7D6B43",
"5. c #7E6C43",
"6. c #81641F",
"7. c #83661F",
"8. c #85671F",
"9. c #896A1F",
"0. c #8B6C1F",
"q. c #906F1F",
"w. c #95721F",
"e. c #96741E",
"r. c #98751F",
"t. c #9C771F",
"y. c #A07A1F",
"u. c #A67F1F",
"i. c #937120",
"p. c #9E7920",
"a. c #A27C20",
"s. c #A57E20",
"d. c #A77F20",
"f. c #836F45",
"g. c #8C7749",
"h. c #8D7849",
"j. c #8F7A4A",
"k. c #917B4B",
"l. c #937D4C",
"z. c #AE841F",
"x. c #AD8420",
"c. c #AE8420",
"v. c #AF8520",
"b. c #B18620",
"n. c #B18720",
"m. c #B88B20",
"M. c #BB8E20",
"N. c #BD8F20",
"B. c #BF9020",
"V. c #C19220",
"C. c #C39320",
"Z. c #C49420",
"A. c #CA9821",
"S. c #CC9921",
"D. c #CD9A21",
"F. c #CE9B21",
"G. c #D09D20",
"H. c #D7A121",
"J. c #DBA421",
"K. c #DCA521",
"L. c #DEA621",
"P. c #E0A821",
"I. c #E3AA21",
"U. c #E4AB21",
"Y. c #E5AB21",
"T. c #E6AC21",
"R. c #E7AC21",
"E. c #E8AD21",
"W. c #E9AE21",
"Q. c #EAAF21",
"!. c #ECB021",
"~. c #ECB121",
"^. c #EDB121",
"/. c #EEB221",
"(. c #EFB221",
"). c #EFB321",
"_. c #F0B321",
"`. c #F1B421",
"'. c #97804D",
"]. c #99824E",
"[. c #9A824F",
"{. c #A08851",
"}. c #A18851",
"|. c #A28952",
" X c #A68C53",
".X c #A78D54",
"XX c #A98E55",
"oX c #AE9357",
"OX c #B19558",
"+X c #B49759",
"@X c #B5985A",
"#X c #B6995A",
"$X c #B79A5B",
"%X c #B89A5B",
"&X c #BA9C5C",
"*X c #BC9E5D",
"=X c #BE9F5D",
"-X c #C0A15E",
";X c #C3A35F",
":X c #C4A560",
">X c #CAA962",
",X c #CBAA63",
"<X c #CCAA63",
"1X c #CCAB63",
"2X c #CEAC64",
"3X c #D0AE65",
"4X c #D2AF65",
"5X c #D5B267",
"6X c #D6B367",
"7X c #D8B568",
"8X c #DFBA6B",
"9X c #E2BD6C",
"0X c #E3BD6C",
"qX c #E6C06E",
"wX c #E7C16E",
"eX c #E9C26F",
"rX c #E9C36F",
"tX c #EAC370",
"yX c #EBC470",
"uX c #ECC570",
"iX c #EDC571",
"pX c #EDC671",
"aX c #EEC771",
"sX c #EFC771",
"dX c #F2C973",
"fX c #F2CA73",
"gX c #F3CA73",
"hX c #F4CB73",
"jX c #F4CB74",
"kX c #F5CC74",
/* pixels */
"                                                                                                                            ",
"                                                                                                                            ",
"                                                                                                                            ",
"                                                                                                                            ",
"                                                                                                                            ",
"                                                                                                                            ",
"                                                                                                                            ",
"                                                                                                                            ",
"                                                                                                                            ",
"                                                                                                                            ",
"                                                                                                                            ",
"                                                                                                                            ",
"                                                                                                                            ",
"                                                                                                                            ",
"                                                                                                                            ",
"                                                                                                                            ",
"                                                                                                                            ",
"                                                                                                                            ",
"                                                                                                                            ",
"                                                                                                                            ",
"                                                                                                                            ",
"                                                                                                                            ",
"                                          % % % ; 1 5 0 r A R / { o.9.e.p.s.z.b.b.b.b.z.s.t.q.7.W %                         ",
"                7 ; r i.c.V.G.K.Y.Q./._.`.`.`.`.`.`.`.`.`.`.`.`.`.`.`.`.`.`.`.`.`.`.`.`.`.`.`.`.Q.b.%                       ",
"                2XkXfX&X%.T m./.`.`.`.`.`.`.`.`.`.`.`.`.`.`.`.`.`.`.`.`.`.`.`.`.`.`.`.`.`.`.`.`.7./.A.                      ",
"                uXkXkXkXkXkXuX XK / F.`.`.`.`.`.`.`.`.`.`.`.`.`.`.`.`.`.`.`.`.`.`.`.`.`.`.`.`./. .`.`.A                     ",
"                rXkXkXkXkXkXkXkXkXkXqXj.v { F._.`.`.`.`.`.`.`.`.`.`.`.`.`.`.`.`.`.`.`.`.`.`.`.a `.`.`.Q.                    ",
"                @XkXkXkXkXkXkXkXkXkXkXkXkXkXqX[.L T s.Y.`.`.`.`.`.`.`.`.`.`.`.`.`.`.`.`.`.`.T /.`.`.`.`.Q                   ",
"                g kXkXkXkXkXkXkXkXkXkXkXkXkXkXkXkXkXfX3X4.m ! c.R.`.`.`.`.`.`.`.`.`.`.`.`.R Q.`.`.`.`.`.R.                  ",
"                  .XkXkXkXkXkX>.J yXkXkXkXkXkXkXkXkXkXkXkXkXkXfX2X5.m W a.I.`.`.`.`.`.K.r /.`.`.`.`.`.`.`.6                 ",
"                  X kXkXkXkXkX2.} 9XkXkXkXkXkXkXkXkXkXkXkXkXkXkXkXkXkXkXhX7Xk.L G ..r M.`.`.`.`.`.`.`.`.`.0.                ",
"                  % kXkXkXkXkXkXkXkXkXkXkX*X#.<.fXkXkXkXkXkXkXkXkXkXkXkXkXkXkXkXkXg./.`.`.`.`.`.`.`.`.`.`.I.                ",
"                % 1XkXkXkXkXkXkXkXkXkXkX3XV.`.`.a kXkXkXkXkXkXkXkXkXkXkXkXkXkXkXkXjX7.`.`.`.`.`.`.`.`.`.`.`.%               ",
"              s kXkXkXkXkXkXkXkXkXkXkXkXk.`.`.`.F.rXkXkXkXkXkXkXkXkXkXkXkXuXkXkXkXkXL `.`.`.`.`.`.`.`.`.`.`.;               ",
"              <.kXkXkXkXkXkXkXkXkXkXkXkXqXr.`.`...jXkXkXkXkXkXkXkXkXkX8X' Z.G fXkXkX-XR.`.`.`.`.`.`.`.`.`.`.0               ",
"              *.kXkXkXkXkXkXuXXX@XhXkXkXkX1Xx x ,XkXkXkXkXkXkXkXkXkXkX-.`.`.`.4.kXkXjXw.`.`.`.`.`.`.`.`.`.`.a               ",
"              #.kXkXkXkXkX-Xt._././ qXkXkXkXkXkXkXkXkXkXkXkXkXkXkXkXkX@XH.`./.[.kXkXkXA `.`.`.`.`.`.`.`.`.`.C               ",
"              I kXkXkXkXkXx `.`.`.`.m kXkXkXkXkXkXkXkXkXkXkXkXkXkXkXkXkX'.k :.kXkXkXkX+.`.`.`.`.`.`.`.`.`.`.e               ",
"              B kXkXkXkXkXx `.`.`.`.G kXkXkXkXkXkXkX1.*XkXkXkXkXkXkXkXkXkXkXkXkXkXkXkX5.`.`.`.`.`.`.`.`.`.`.9               ",
"              f kXkXkXkXkXoXF.`.`._.=.kXkXkXkXkXkXuXc.u kXkXkXkXkXkXkXkXkXkXkXkXkXkXkXXX_.`.`.`.`.`.`.`.`.`.;               ",
"              8 kXkXkXkXkXkX{.H { +.kXkXkXkXkXkXkXkX6XtXkXkXkXkXkXkXkXkXkXkXkXkXkXkXkX*X/.`.`.`.`.`.`.`.`.`.%               ",
"              ; 8XkXkXkXkXkXkXkXkXkXkXkXkXkXkXkXkXkXkXkXkXkXkXkXkXkXkXkXkXkXkXkXkXkXkX-X/.`.`.`.`.`.`.`.`.K.                ",
"                  X v OXhXkXkXkXkXkXkXkXkXkXkXkXkXkXkXkXkXkXkXkXk / j.kXkXkXkXkXkXkXkX+X/.`.`.`.`.`.`.`.`.8.                ",
"                          s l.uXkXkXkXkXkXkXkXkXkXkXkXkXkXkXkX8XJ.`.^ kXkXkXkXkXkXkXkXl.`.`.`.`.`.`.`.`.`.1                 ",
"                                , ;.6XkXkXkXkXkXkXkXkXkXkXkXkXkXk u.&.kXkXkXkXkXkXkXkX;.`.`.`.`.`.`.`.`.y.                  ",
"                                      % h {.uXkXkXkXkXkXkXkXkXkXkXjXkXkXkXkXkXkXkXkXkXm `.`.`.`.`.`.`.m.                    ",
"                                              ; =.,XkXkXkXkXkXkXkXkXkXkXkXkXkXkXkXkXkX! `.`.`.`.`.`.'                       ",
"                                                    % w f.9XkXkXkXkXkXkXkXkXkXkXkXkXuXB.`.`.`.`.c.;                         ",
"                                                            % v {.uXkXkXkXkXkXkXkXkX3.`.`.`.N.1                             ",
"                                                                    % +.%XfXkXkXkXjX_ `.c.1                                 ",
"                                                                          X , *.:XV  .%                                     ",
"                                                                                                                            ",
"                                                                                                                            ",
"                                                                                                                            ",
"                                                                                                                            ",
"                                                                                                                            ",
"                                                                                                                            ",
"                                                                                                                            ",
"                                                                                                                            ",
"                                                                                                                            ",
"                                                                                                                            ",
"                                                                                                                            ",
"                                                                                                                            ",
"                                                                                                                            "
};
