/* XPM */
static char *_23312d19a364b4c8de33df2f61a4b80CiS8KaYszlwuMjDk[] = {
/* columns rows colors chars-per-pixel */
"64 64 226 2 ",
"   c None",
".  c black",
"X  c #1A0000",
"o  c #390000",
"O  c #000026",
"+  c #313132",
"@  c #4A0000",
"#  c #5B0000",
"$  c #4B1100",
"%  c #7F0000",
"&  c #5D3E1E",
"*  c #663120",
"=  c #7D4200",
"-  c #6A431B",
";  c #76490C",
":  c #574635",
">  c #6E4D33",
",  c #1E3E53",
"<  c #303D45",
"1  c #30454C",
"2  c #4B4A49",
"3  c #595858",
"4  c #565552",
"5  c #67584A",
"6  c #765B47",
"7  c #645D5A",
"8  c #675954",
"9  c #745D58",
"0  c #7D634D",
"q  c #7B604B",
"w  c #6B625B",
"e  c #766558",
"r  c #485C66",
"t  c #52676D",
"y  c #696867",
"u  c #756A64",
"i  c #746B65",
"p  c #676E72",
"a  c #747473",
"s  c #BA0000",
"d  c #A63430",
"f  c #EE0012",
"g  c #CC1127",
"h  c #8C5702",
"j  c #9B5B00",
"k  c #945B02",
"l  c #984F00",
"z  c #A75D00",
"x  c #9C6201",
"c  c #9D6409",
"v  c #99631B",
"b  c #A36400",
"n  c #AB6400",
"m  c #AC6C02",
"M  c #A56A08",
"N  c #AD6E0A",
"B  c #A36805",
"V  c #B36C00",
"C  c #BC6B00",
"Z  c #B16500",
"A  c #B47101",
"S  c #BB7401",
"D  c #BE7901",
"F  c #B5740C",
"G  c #BC780A",
"H  c #B9760C",
"J  c #A96D17",
"K  c #B27215",
"L  c #B87614",
"P  c #BE7A14",
"I  c #BD7A1A",
"U  c #B5741A",
"Y  c #AE7111",
"T  c #875E36",
"R  c #865A28",
"E  c #8B602E",
"W  c #9B6729",
"Q  c #8B6238",
"!  c #9C6A35",
"~  c #96693C",
"^  c #976837",
"/  c #A46E2C",
"(  c #A56C24",
")  c #AE732B",
"_  c #AD7227",
"`  c #BC7B24",
"'  c #BC7C2C",
"]  c #B37627",
"[  c #A26E35",
"{  c #AB7335",
"}  c #A5723C",
"|  c #A97537",
" . c #BC7D34",
".. c #B37838",
"X. c #C26D00",
"o. c #C47400",
"O. c #C47B01",
"+. c #CB7D00",
"@. c #C37C0A",
"#. c #CA7A05",
"$. c #C47D12",
"%. c #C27E1B",
"&. c #D17E00",
"*. c #C17E25",
"=. c #865E4D",
"-. c #8B6A4D",
";. c #856447",
":. c #936B43",
">. c #9B6E44",
",. c #936D4B",
"<. c #9D7145",
"1. c #8B6C52",
"2. c #846B58",
"3. c #976B5A",
"4. c #8C725B",
"5. c #987455",
"6. c #A3764A",
"7. c #A57B53",
"8. c #B67A57",
"9. c #B5784D",
"0. c #88766A",
"q. c #917C70",
"w. c #AA776A",
"e. c #AE7D73",
"r. c #B87E64",
"t. c #C26A5A",
"y. c #E1514D",
"u. c #CD8203",
"i. c #CD830A",
"p. c #D38501",
"a. c #D68801",
"s. c #D98A00",
"d. c #D1860C",
"f. c #D58809",
"g. c #DC8D0B",
"h. c #CC8312",
"j. c #CD841A",
"k. c #C78117",
"l. c #D18614",
"z. c #D38814",
"x. c #D1871A",
"c. c #D5891B",
"v. c #DA8D18",
"b. c #CD8525",
"n. c #CC852A",
"m. c #C48127",
"M. c #D28921",
"N. c #D38926",
"B. c #C48335",
"V. c #D38F34",
"C. c #B88648",
"Z. c #BD9157",
"A. c #B28755",
"S. c #958474",
"D. c #A8876A",
"F. c #B7886B",
"G. c #BA9369",
"H. c #BC857A",
"J. c #B79878",
"K. c #A38E76",
"L. c #C6985A",
"P. c #C89450",
"I. c #C88B7B",
"U. c #CA926F",
"Y. c #CBA267",
"T. c #D4A86A",
"R. c #D5AC71",
"E. c #D5AD78",
"W. c #E7BC7C",
"Q. c #6D7B86",
"!. c #7C8285",
"~. c #B69B85",
"^. c #AE998C",
"/. c #BAA695",
"(. c #BBA78A",
"). c #9EA2A6",
"_. c #B9B6B5",
"`. c #B3B0AE",
"'. c #C68D82",
"]. c #D9988C",
"[. c #CE9083",
"{. c #E09E91",
"}. c #E09D8E",
"|. c #C5AC8C",
" X c #C4AA97",
".X c #CCB89B",
"XX c #D3B899",
"oX c #EAA395",
"OX c #F6AC9D",
"+X c #F8AE9E",
"@X c #C3B7B0",
"#X c #F6ADA1",
"$X c #FEB2A2",
"%X c #FEB3A3",
"&X c #FFBCAA",
"*X c #F4C683",
"=X c #FDCE87",
"-X c #FCCE88",
";X c #F5C986",
":X c #FFD38B",
">X c #FFD389",
",X c #F0CB90",
"<X c #DCC5A4",
"1X c #CFC4BE",
"2X c #E5CCAA",
"3X c #EAD1AF",
"4X c #E8D2B2",
"5X c #F2DAB6",
"6X c #FDE3BE",
"7X c #F5E0BC",
"8X c #BFC1C2",
"9X c #DCDBDB",
"0X c #D8D8D9",
"qX c #CDC9C8",
"wX c #EBDBC9",
"eX c #FEE5C1",
"rX c #FFEAC5",
"tX c #FFEDC9",
"yX c #F4E3C1",
"uX c #FFF1C9",
"iX c #E6E1DD",
"pX c #DFE4E6",
"aX c #E6E8E9",
"sX c #EFF2F3",
"dX c #FEFEFE",
"fX c #F4F6F7",
/* pixels */
"                                              p ;.,.w                                                                           ",
"                                            q %.p.p.D 2                                                                         ",
"                                          6 u.s.h.h.s.v     w                               6 Q W M Q 5                         ",
"                                        4 O.i.H G G $.S 4   i 2.                        ;.' p.p.+.+.O.D Q                       ",
"                                        ~ u.L N M c M x k ,.5.1.W :.                ,.%.a.p.L 8.I.].].I...:                     ",
"                                      1 H f.d.f.d.i.@.$.A 4.^.D.h m ' :.        -.` p.s.S 8.].#X%X$X$X%X#Xw.1                   ",
"                                      2 O.i.F N M M N N L O.B.B.@.P u.p.j.! > { s.a.d.m I.$X$X+XOX+XOXOX$X+X8                   ",
"                                      w b J N G i.i.i.G a.i.A D @.p.i.h.+.A u.p.i.l.m H.%X+XOX+X+X+X+X+XOX$Xw.                  ",
"                                  i 6 h @.d.f.d.i.d.@.B c.W J K k G d.i.@.h.d.h.l.D 3.$X+X+X+X+X+X+X+X+X+X$XH.                  ",
"                              !.2.v N.%.O.i.i.i.i.i.k.W u.j u.g.@.N d.i.d.u.i.i.p.h {.$X+X+X+X+X+X+X+X+X+X%X'.                  ",
"                              4 I V C p.h.u.i.i.u.h.c.l l h V d.G F d.i.i.i.i.l.O.3.$X+X+X+X+X+X+X+X+X+X+X%XH.                  ",
"                            e S V h S.' u.h.i.i.i.j.o.G.8X9X/.o.k.i.i.i.i.i.i.c.m H.%X+X+X+X+X+X+X+X+X+X+X$X3.                  ",
"                            W g.V _.dX`.C M.i.u.b.o.|.fXdXdXpXz M.i.i.i.i.i.i.d.x ].$X+X+X+X+X+X+X+X+X+X+XOX9                   ",
"                             .+.^.dXdXaXn z.i.b.+.J.fXdXfXdX9XZ M.i.i.i.i.i.i.z.x ].%X+X+X$X+X+X+X+X+X+X%X}.r                   ",
"                            *.o.0XdXdXaXA p.j.x.C 9XdXfXdXdX@Xo.b.i.i.i.i.i.i.l.S w.#X%X$X].oX$X+X+X+X+X$Xw.                    ",
"                            ] S aXdXdX9XV x.b.+.J.dXdXdXdXsX..u.j.i.i.i.i.i.i.i.p.A 9.U.r.w.OX+X+X+X+X$XoX3                     ",
"                            ^ A sXsXqXqXX.M.b.X.1X0X9XdXdX@XX.N.u.i.i.i.i.i.i.i.i.A { 9.F.oX$X+X+X+X+X$Xw.                      ",
"                            q V sX_.. D.+.h.j.O.@X+ 3 dXaXF p.h.i.i.i.i.i.i.i.i.z.b H.$X$X$X+X+X+XOX%X[.t                       ",
"                              z wX).. ..V.i.j.x.0.. 3 dX XX.b.p.d.d.d.d.i.i.i.i.x.S w.%X+X+X+X+X+X%XoXy                         ",
"                            0.#.~.).$ C X.a.u.o.= . `.iXn k.@.@.O.G G G G @.i.i.l.m w.$X+X+X+X+X%XoXu                           ",
"                        u E ) m |.<XS./. X^ L.<X<X<XyX~.Z *.D G P G @.@.@.@.i.i.c.j '.%XOX+X%X%X{.8                             ",
"                      2 W O.V 5.tX5X+ Q.Q.O .XtXrX6XXXB G L m.n.h.d.d.i.i.i.i.h.u.- oX+X%X%X+Xe.                                ",
"                      + O.j.u.] 4XtX<Xq.|.5X6X6X6X6X4X:.D D Z z n m F i.i.i.i.v.b '.&X$X+X'.0.                                  ",
"                        / s.M.+....X3X2X<X3XrXrXrX7XXX> = ^ Y.XX2XF.A j.u.h.v.V > {.].e.0.                                      ",
"                        p / u.v.C (.4X2XXX: 2.K.q.=.@ $ X q.rXeXtXJ.O.j.j.s.D 5                                                 ",
"                            ;.I &.G.tX6XeX2X@ # # o s d s XXrXeX5X' a.f.p._ y                                                   ",
"                              y ,.j |.uXrXuX<X@ * d y.f y.7X6XrXJ.n %.K 4.                                                      ",
"                                    < K.4X5XtX(.o f f g 3XuXrX/.= Y m R p                                                       ",
"                                  1 W V ] 7.J.eXXXt.I.5XrX.XS.b p.d.i.i.O.! 7                                                   ",
"                                7 D p.d.p.u.o.L.4XyXrX4XD.z n p.i.u.i.i.i.p.+.1.                                                ",
"                              y D f.i.i.h.P l.+.A A.A.N O.d.i.i.u.i.i.i.i.i.d.p.{ a                                             ",
"                            p U p.i.i.H b V f.h.p.+.+.p.l.i.i.i.i.i.i.i.i.i.i.h.p.' 7                                           ",
"                            / p.h.i.i.x E A.D p.h.i.` C.+.d.i.i.i.i.i.i.i.i.i.i.h.p.D i                                         ",
"                          E p.h.i.i.z.b Y.:XL.D c.A Y.:XP.O.l.i.i.i.i.i.i.i.i.i.i.i.f.O.u                                       ",
"                        ;.u.h.u.i.i.p.N W.>X-XC.S C.-X>X*X] u.h.i.@.i.d.i.i.i.i.i.i.i.a.$.u                                     ",
"                      0 u.d.i.i.i.h.p.) *X=X>X*XT.*X>X;X:XR.A z.i.F M G p.p.i.i.i.i.u.i.a.$.y                                   ",
"                    u +.f.i.i.i.i.i.p./ ;X>X=X-X:X>X=X=X=X-XC.+.h.p.@.B R ` p.p.p.i.i.i.h.a._                                   ",
"                  i P p.i.u.i.i.p.a.S > ;X-X=X=X=X=X=X=X=X>XW.F p.i.z.p.-.  T ) i.p.p.i.i.h.p.>.                                ",
"                S.I p.h.i.i.u.p.u...3 5 >X>X=X=X=X=X=X=X=X=X>XY.S l.i.i.u.2.    0 | i.p.u.i.i.u.) ~ 6                           ",
"            ;.7.+.p.h.i.u.p.p.' -.    4.>X>X=X=X=X=X=X=X=X=X=X-XC.+.h.i.p.h.q       6 { i.i.i.h.p.s.p./ 6                       ",
"  ( ( v !  .a.p.p.h.u.d.f.%.~         0.>X>X-X=X=X=X=X=X=X=X=X>XW.N p.i.h.a.h.4.        5.u.h.i.h.h.d.u.O.*.P I e               ",
"4 n.u.$.p.p.z.j.h.u.i.A !             0.*X>X-X-X=X=X=X=X=X=X=X=X:XT.V d.i.h.p.p.~       e p.h.p.p.p.u.$.h.+.k.U 8               ",
"0.T x A O.u.p.p.p.h.d.;                 W.:X=X=X=X=X=X=X=X=X=X=X=X:XZ.o.l.u.h.z.p.K :   [ p.p.p.h.j.f.p.+.F E t                 ",
"1.+.h.d.d.x.%. .n.p.a.J                 E.:X=X=X=X=X=X=X=X=X=X=X=X>X;X..+.h.u.i.h.s.( ;.a.p.u.6.2.1.6.) m.+.F e                 ",
"  -.<.} 5.-.    2.J c.s.5.              G.:X=X=X=X=X=X=X=X=X=X=X-X-X>XW.J p.i.i.i.d.D j D { 0                                   ",
"                    5.v 0               e =X-X=X=X=X=X=X=X=X=X=X=X=X;X:XY.V z.i.i.u.h.@.-                     } >.6.            ",
"                                        , R.:X;X=X=X=X=X=X=X=X=X=X=X=X=X;X{ p.h.i.i.i.s.U 1           <.( B.n. ./ [ ! >.1.6     ",
"                                          e *X:X;X=X=X=X=X=X=X=X=X=X=X=X>XZ.O.h.i.i.i.i.u.- | C.J _ B.B.) [               e 7   ",
"                                            -.-X:X;X=X=X=X=X=X=X=X=X=X=X>XZ.O.h.i.i.i.i.d.k V @. .| ~                           ",
"                                            - 6.*X:X=X;X=X=X=X=X=X=X;X=X-X| u.h.i.i.i.i.a.J r                                   ",
"                                            ` S } R.-X:X>X=X=X=X=X=X>X:XT.D d.i.i.i.i.i.p.%.                                    ",
"                                          7 i.v.O.m A.W.-X:X:X:X:X>X*XT.P u.i.i.i.i.i.i.z.u.6                                   ",
"                                          ;.p.h.z.u.S ` P.L.T.T.Y.L.V.+.u.i.u.i.i.i.i.i.h.p.;.                                  ",
"                                          / p.i.i.h.z.u.O.o.D +.A j L p.a.l.h.u.i.i.i.i.i.p.~                                   ",
"                                        y $.p.i.i.u.i.h.j.f.p.u.! u   1...p.a.h.i.u.i.i.i.p.)                                   ",
"                                        ;.p.i.u.i.i.u.j.p.p.} e           1.` p.a.h.i.i.i.p.h.7                                 ",
"                                        ] p.i.i.i.i.x.p.%.6                   :.u.p.h.i.i.i.p.:.                                ",
"                                      6 u.i.i.i.i.d.+.6.a                       e / a.d.i.i.p.m.y                               ",
"                                    6.I p.i.i.i.i.+.4.                              5.+.d.i.i.u.L { 7.2.                        ",
"                              ~  .x.p.p.i.i.i.h.p.>.                                  > @.i.i.i.p.p.p.h.` } 6                   ",
"                          T b.p.S N @.h.i.i.i.z.p.-.                                  w +.z.h.h.i.u.i.u.u.p.p.{ a               ",
"                        p ] s.b V f.f.p.p.s.p.h.~                                       { p.p.p.p.d.h.k.F Y Y a.P Q.            ",
"                            & + Q J J ! ^ T 0                                             6 >.{ %.i.p.p.p.p.b v E               ",
"                                                                                                  5 6 1.T -.w                   "
};
